<mxfile host="app.diagrams.net" agent="Mozilla/5.0 (Windows NT 10.0; Win64; x64; rv:131.0) Gecko/20100101 Firefox/131.0" version="24.8.0">
  <diagram name="Page-1" id="7V2fJtxmuGw99Q81TMN9">
    <mxGraphModel dx="2327" dy="1926" grid="1" gridSize="10" guides="1" tooltips="1" connect="1" arrows="1" fold="1" page="1" pageScale="1" pageWidth="827" pageHeight="1169" math="0" shadow="0">
      <root>
        <mxCell id="0" />
        <mxCell id="1" parent="0" />
        <mxCell id="0V8ySIExLodoVEiCG3C2-1" value="Customer" style="swimlane;fontStyle=0;childLayout=stackLayout;horizontal=1;startSize=26;fillColor=none;horizontalStack=0;resizeParent=1;resizeParentMax=0;resizeLast=0;collapsible=1;marginBottom=0;whiteSpace=wrap;html=1;" parent="1" vertex="1">
          <mxGeometry x="-40" y="162" width="240" height="234" as="geometry">
            <mxRectangle x="120" y="130" width="80" height="30" as="alternateBounds" />
          </mxGeometry>
        </mxCell>
        <mxCell id="0V8ySIExLodoVEiCG3C2-2" value="+ Id : NVARCHAR (PK)" style="text;strokeColor=none;fillColor=none;align=left;verticalAlign=top;spacingLeft=4;spacingRight=4;overflow=hidden;rotatable=0;points=[[0,0.5],[1,0.5]];portConstraint=eastwest;whiteSpace=wrap;html=1;" parent="0V8ySIExLodoVEiCG3C2-1" vertex="1">
          <mxGeometry y="26" width="240" height="26" as="geometry" />
        </mxCell>
        <mxCell id="0V8ySIExLodoVEiCG3C2-88" value="+ PhoneNumber : NVARCHAR" style="text;strokeColor=none;fillColor=none;align=left;verticalAlign=top;spacingLeft=4;spacingRight=4;overflow=hidden;rotatable=0;points=[[0,0.5],[1,0.5]];portConstraint=eastwest;whiteSpace=wrap;html=1;" parent="0V8ySIExLodoVEiCG3C2-1" vertex="1">
          <mxGeometry y="52" width="240" height="26" as="geometry" />
        </mxCell>
        <mxCell id="0V8ySIExLodoVEiCG3C2-63" value="+ AdressId : GUID (FK) -&amp;gt; Adress" style="text;strokeColor=none;fillColor=none;align=left;verticalAlign=top;spacingLeft=4;spacingRight=4;overflow=hidden;rotatable=0;points=[[0,0.5],[1,0.5]];portConstraint=eastwest;whiteSpace=wrap;html=1;" parent="0V8ySIExLodoVEiCG3C2-1" vertex="1">
          <mxGeometry y="78" width="240" height="26" as="geometry" />
        </mxCell>
        <mxCell id="0V8ySIExLodoVEiCG3C2-4" value="+ FirstName : NVARCHAR" style="text;strokeColor=none;fillColor=none;align=left;verticalAlign=top;spacingLeft=4;spacingRight=4;overflow=hidden;rotatable=0;points=[[0,0.5],[1,0.5]];portConstraint=eastwest;whiteSpace=wrap;html=1;" parent="0V8ySIExLodoVEiCG3C2-1" vertex="1">
          <mxGeometry y="104" width="240" height="26" as="geometry" />
        </mxCell>
        <mxCell id="0V8ySIExLodoVEiCG3C2-5" value="+ LastName : NVARCHAR" style="text;strokeColor=none;fillColor=none;align=left;verticalAlign=top;spacingLeft=4;spacingRight=4;overflow=hidden;rotatable=0;points=[[0,0.5],[1,0.5]];portConstraint=eastwest;whiteSpace=wrap;html=1;" parent="0V8ySIExLodoVEiCG3C2-1" vertex="1">
          <mxGeometry y="130" width="240" height="26" as="geometry" />
        </mxCell>
        <mxCell id="0V8ySIExLodoVEiCG3C2-43" value="+ Email : NVARCHAR" style="text;strokeColor=none;fillColor=none;align=left;verticalAlign=top;spacingLeft=4;spacingRight=4;overflow=hidden;rotatable=0;points=[[0,0.5],[1,0.5]];portConstraint=eastwest;whiteSpace=wrap;html=1;" parent="0V8ySIExLodoVEiCG3C2-1" vertex="1">
          <mxGeometry y="156" width="240" height="26" as="geometry" />
        </mxCell>
        <mxCell id="0V8ySIExLodoVEiCG3C2-89" value="+ Gender : NVARCHAR" style="text;strokeColor=none;fillColor=none;align=left;verticalAlign=top;spacingLeft=4;spacingRight=4;overflow=hidden;rotatable=0;points=[[0,0.5],[1,0.5]];portConstraint=eastwest;whiteSpace=wrap;html=1;" parent="0V8ySIExLodoVEiCG3C2-1" vertex="1">
          <mxGeometry y="182" width="240" height="26" as="geometry" />
        </mxCell>
        <mxCell id="0V8ySIExLodoVEiCG3C2-90" value="+ DateOfBirth : DATETIME" style="text;strokeColor=none;fillColor=none;align=left;verticalAlign=top;spacingLeft=4;spacingRight=4;overflow=hidden;rotatable=0;points=[[0,0.5],[1,0.5]];portConstraint=eastwest;whiteSpace=wrap;html=1;" parent="0V8ySIExLodoVEiCG3C2-1" vertex="1">
          <mxGeometry y="208" width="240" height="26" as="geometry" />
        </mxCell>
        <mxCell id="0V8ySIExLodoVEiCG3C2-8" value="Address" style="swimlane;fontStyle=0;childLayout=stackLayout;horizontal=1;startSize=26;fillColor=none;horizontalStack=0;resizeParent=1;resizeParentMax=0;resizeLast=0;collapsible=1;marginBottom=0;whiteSpace=wrap;html=1;" parent="1" vertex="1">
          <mxGeometry x="280" y="1028" width="240" height="154" as="geometry">
            <mxRectangle x="120" y="130" width="80" height="30" as="alternateBounds" />
          </mxGeometry>
        </mxCell>
        <mxCell id="0V8ySIExLodoVEiCG3C2-9" value="+ AddressId : GUID (PK)" style="text;strokeColor=none;fillColor=none;align=left;verticalAlign=top;spacingLeft=4;spacingRight=4;overflow=hidden;rotatable=0;points=[[0,0.5],[1,0.5]];portConstraint=eastwest;whiteSpace=wrap;html=1;" parent="0V8ySIExLodoVEiCG3C2-8" vertex="1">
          <mxGeometry y="26" width="240" height="32" as="geometry" />
        </mxCell>
        <mxCell id="0V8ySIExLodoVEiCG3C2-10" value="+ StreetAdress : NVARCHAR" style="text;strokeColor=none;fillColor=none;align=left;verticalAlign=top;spacingLeft=4;spacingRight=4;overflow=hidden;rotatable=0;points=[[0,0.5],[1,0.5]];portConstraint=eastwest;whiteSpace=wrap;html=1;" parent="0V8ySIExLodoVEiCG3C2-8" vertex="1">
          <mxGeometry y="58" width="240" height="32" as="geometry" />
        </mxCell>
        <mxCell id="0V8ySIExLodoVEiCG3C2-11" value="+ PostalCode : NVARCHAR" style="text;strokeColor=none;fillColor=none;align=left;verticalAlign=top;spacingLeft=4;spacingRight=4;overflow=hidden;rotatable=0;points=[[0,0.5],[1,0.5]];portConstraint=eastwest;whiteSpace=wrap;html=1;" parent="0V8ySIExLodoVEiCG3C2-8" vertex="1">
          <mxGeometry y="90" width="240" height="32" as="geometry" />
        </mxCell>
        <mxCell id="J-siKovozLCaotCAgBgI-1" value="+ City : NVARCHAR" style="text;strokeColor=none;fillColor=none;align=left;verticalAlign=top;spacingLeft=4;spacingRight=4;overflow=hidden;rotatable=0;points=[[0,0.5],[1,0.5]];portConstraint=eastwest;whiteSpace=wrap;html=1;" parent="0V8ySIExLodoVEiCG3C2-8" vertex="1">
          <mxGeometry y="122" width="240" height="32" as="geometry" />
        </mxCell>
        <mxCell id="0V8ySIExLodoVEiCG3C2-16" value="CustomerOrder" style="swimlane;fontStyle=0;childLayout=stackLayout;horizontal=1;startSize=26;fillColor=none;horizontalStack=0;resizeParent=1;resizeParentMax=0;resizeLast=0;collapsible=1;marginBottom=0;whiteSpace=wrap;html=1;" parent="1" vertex="1">
          <mxGeometry x="-40" y="-40" width="240" height="78" as="geometry">
            <mxRectangle x="120" y="130" width="80" height="30" as="alternateBounds" />
          </mxGeometry>
        </mxCell>
        <mxCell id="0V8ySIExLodoVEiCG3C2-17" value="+ OrderId : GUID (PK, FK) -&amp;gt; Order" style="text;strokeColor=none;fillColor=none;align=left;verticalAlign=top;spacingLeft=4;spacingRight=4;overflow=hidden;rotatable=0;points=[[0,0.5],[1,0.5]];portConstraint=eastwest;whiteSpace=wrap;html=1;" parent="0V8ySIExLodoVEiCG3C2-16" vertex="1">
          <mxGeometry y="26" width="240" height="26" as="geometry" />
        </mxCell>
        <mxCell id="0V8ySIExLodoVEiCG3C2-60" value="&lt;div&gt;+ CustomerId : NVARCHAR (FK)&lt;/div&gt;" style="text;strokeColor=none;fillColor=none;align=left;verticalAlign=top;spacingLeft=4;spacingRight=4;overflow=hidden;rotatable=0;points=[[0,0.5],[1,0.5]];portConstraint=eastwest;whiteSpace=wrap;html=1;" parent="0V8ySIExLodoVEiCG3C2-16" vertex="1">
          <mxGeometry y="52" width="240" height="26" as="geometry" />
        </mxCell>
        <mxCell id="0V8ySIExLodoVEiCG3C2-21" value="OrderDetail" style="swimlane;fontStyle=0;childLayout=stackLayout;horizontal=1;startSize=26;fillColor=none;horizontalStack=0;resizeParent=1;resizeParentMax=0;resizeLast=0;collapsible=1;marginBottom=0;whiteSpace=wrap;html=1;" parent="1" vertex="1">
          <mxGeometry x="280" y="130" width="240" height="104" as="geometry">
            <mxRectangle x="120" y="130" width="80" height="30" as="alternateBounds" />
          </mxGeometry>
        </mxCell>
        <mxCell id="0V8ySIExLodoVEiCG3C2-23" value="+ ItemId : GUID (PK, FK) -&amp;gt; Item" style="text;strokeColor=none;fillColor=none;align=left;verticalAlign=top;spacingLeft=4;spacingRight=4;overflow=hidden;rotatable=0;points=[[0,0.5],[1,0.5]];portConstraint=eastwest;whiteSpace=wrap;html=1;" parent="0V8ySIExLodoVEiCG3C2-21" vertex="1">
          <mxGeometry y="26" width="240" height="26" as="geometry" />
        </mxCell>
        <mxCell id="0V8ySIExLodoVEiCG3C2-22" value="+ OrderId : GUID (PK, FK) -&amp;gt; Order" style="text;strokeColor=none;fillColor=none;align=left;verticalAlign=top;spacingLeft=4;spacingRight=4;overflow=hidden;rotatable=0;points=[[0,0.5],[1,0.5]];portConstraint=eastwest;whiteSpace=wrap;html=1;" parent="0V8ySIExLodoVEiCG3C2-21" vertex="1">
          <mxGeometry y="52" width="240" height="26" as="geometry" />
        </mxCell>
        <mxCell id="0V8ySIExLodoVEiCG3C2-24" value="+ Quantity : INT" style="text;strokeColor=none;fillColor=none;align=left;verticalAlign=top;spacingLeft=4;spacingRight=4;overflow=hidden;rotatable=0;points=[[0,0.5],[1,0.5]];portConstraint=eastwest;whiteSpace=wrap;html=1;" parent="0V8ySIExLodoVEiCG3C2-21" vertex="1">
          <mxGeometry y="78" width="240" height="26" as="geometry" />
        </mxCell>
        <mxCell id="0V8ySIExLodoVEiCG3C2-25" value="Item" style="swimlane;fontStyle=0;childLayout=stackLayout;horizontal=1;startSize=26;fillColor=none;horizontalStack=0;resizeParent=1;resizeParentMax=0;resizeLast=0;collapsible=1;marginBottom=0;whiteSpace=wrap;html=1;" parent="1" vertex="1">
          <mxGeometry x="280" y="300" width="240" height="542" as="geometry">
            <mxRectangle x="120" y="130" width="80" height="30" as="alternateBounds" />
          </mxGeometry>
        </mxCell>
        <mxCell id="0V8ySIExLodoVEiCG3C2-26" value="+ ItemId: GUID (PK)" style="text;strokeColor=none;fillColor=none;align=left;verticalAlign=top;spacingLeft=4;spacingRight=4;overflow=hidden;rotatable=0;points=[[0,0.5],[1,0.5]];portConstraint=eastwest;whiteSpace=wrap;html=1;" parent="0V8ySIExLodoVEiCG3C2-25" vertex="1">
          <mxGeometry y="26" width="240" height="26" as="geometry" />
        </mxCell>
        <mxCell id="0V8ySIExLodoVEiCG3C2-27" value="+ Name : NVARCHAR" style="text;strokeColor=none;fillColor=none;align=left;verticalAlign=top;spacingLeft=4;spacingRight=4;overflow=hidden;rotatable=0;points=[[0,0.5],[1,0.5]];portConstraint=eastwest;whiteSpace=wrap;html=1;" parent="0V8ySIExLodoVEiCG3C2-25" vertex="1">
          <mxGeometry y="52" width="240" height="26" as="geometry" />
        </mxCell>
        <mxCell id="0V8ySIExLodoVEiCG3C2-28" value="&lt;div&gt;+ Stock : INT&lt;/div&gt;&lt;div&gt;&lt;br&gt;&lt;/div&gt;" style="text;strokeColor=none;fillColor=none;align=left;verticalAlign=top;spacingLeft=4;spacingRight=4;overflow=hidden;rotatable=0;points=[[0,0.5],[1,0.5]];portConstraint=eastwest;whiteSpace=wrap;html=1;" parent="0V8ySIExLodoVEiCG3C2-25" vertex="1">
          <mxGeometry y="78" width="240" height="26" as="geometry" />
        </mxCell>
        <mxCell id="J-siKovozLCaotCAgBgI-5" value="&lt;div&gt;+ Descritpion : NVARCHAR&lt;br&gt;&lt;/div&gt;&lt;div&gt;&lt;br&gt;&lt;/div&gt;" style="text;strokeColor=none;fillColor=none;align=left;verticalAlign=top;spacingLeft=4;spacingRight=4;overflow=hidden;rotatable=0;points=[[0,0.5],[1,0.5]];portConstraint=eastwest;whiteSpace=wrap;html=1;" parent="0V8ySIExLodoVEiCG3C2-25" vertex="1">
          <mxGeometry y="104" width="240" height="26" as="geometry" />
        </mxCell>
        <mxCell id="0V8ySIExLodoVEiCG3C2-68" value="&lt;div&gt;+ Price : REAL&lt;/div&gt;&lt;div&gt;&lt;br&gt;&lt;/div&gt;" style="text;strokeColor=none;fillColor=none;align=left;verticalAlign=top;spacingLeft=4;spacingRight=4;overflow=hidden;rotatable=0;points=[[0,0.5],[1,0.5]];portConstraint=eastwest;whiteSpace=wrap;html=1;" parent="0V8ySIExLodoVEiCG3C2-25" vertex="1">
          <mxGeometry y="130" width="240" height="26" as="geometry" />
        </mxCell>
        <mxCell id="0V8ySIExLodoVEiCG3C2-69" value="&lt;div&gt;+ OriginCountry : NVARCHAR&lt;/div&gt;&lt;div&gt;&lt;br&gt;&lt;/div&gt;" style="text;strokeColor=none;fillColor=none;align=left;verticalAlign=top;spacingLeft=4;spacingRight=4;overflow=hidden;rotatable=0;points=[[0,0.5],[1,0.5]];portConstraint=eastwest;whiteSpace=wrap;html=1;" parent="0V8ySIExLodoVEiCG3C2-25" vertex="1">
          <mxGeometry y="156" width="240" height="26" as="geometry" />
        </mxCell>
        <mxCell id="0V8ySIExLodoVEiCG3C2-62" value="&lt;div&gt;+ SupplierID: GUID (FK) -&amp;gt; Supllier&lt;br&gt;&lt;/div&gt;" style="text;strokeColor=none;fillColor=none;align=left;verticalAlign=top;spacingLeft=4;spacingRight=4;overflow=hidden;rotatable=0;points=[[0,0.5],[1,0.5]];portConstraint=eastwest;whiteSpace=wrap;html=1;" parent="0V8ySIExLodoVEiCG3C2-25" vertex="1">
          <mxGeometry y="182" width="240" height="26" as="geometry" />
        </mxCell>
        <mxCell id="0V8ySIExLodoVEiCG3C2-67" value="&lt;div&gt;+ Description: VARCHAR&lt;/div&gt;&lt;div&gt;&lt;br&gt;&lt;/div&gt;" style="text;strokeColor=none;fillColor=none;align=left;verticalAlign=top;spacingLeft=4;spacingRight=4;overflow=hidden;rotatable=0;points=[[0,0.5],[1,0.5]];portConstraint=eastwest;whiteSpace=wrap;html=1;" parent="0V8ySIExLodoVEiCG3C2-25" vertex="1">
          <mxGeometry y="208" width="240" height="26" as="geometry" />
        </mxCell>
        <mxCell id="J-siKovozLCaotCAgBgI-6" value="&lt;div&gt;+ CreationDate : DATETIME&lt;/div&gt;" style="text;strokeColor=none;fillColor=none;align=left;verticalAlign=top;spacingLeft=4;spacingRight=4;overflow=hidden;rotatable=0;points=[[0,0.5],[1,0.5]];portConstraint=eastwest;whiteSpace=wrap;html=1;" parent="0V8ySIExLodoVEiCG3C2-25" vertex="1">
          <mxGeometry y="234" width="240" height="26" as="geometry" />
        </mxCell>
        <mxCell id="J-siKovozLCaotCAgBgI-7" value="&lt;div&gt;+ Slug: NVARCHAR&lt;/div&gt;" style="text;strokeColor=none;fillColor=none;align=left;verticalAlign=top;spacingLeft=4;spacingRight=4;overflow=hidden;rotatable=0;points=[[0,0.5],[1,0.5]];portConstraint=eastwest;whiteSpace=wrap;html=1;" parent="0V8ySIExLodoVEiCG3C2-25" vertex="1">
          <mxGeometry y="260" width="240" height="26" as="geometry" />
        </mxCell>
        <mxCell id="0V8ySIExLodoVEiCG3C2-35" value="+&amp;nbsp;AlcoholFamilyId : GUID (FK)" style="text;strokeColor=none;fillColor=none;align=left;verticalAlign=top;spacingLeft=4;spacingRight=4;overflow=hidden;rotatable=0;points=[[0,0.5],[1,0.5]];portConstraint=eastwest;whiteSpace=wrap;html=1;" parent="0V8ySIExLodoVEiCG3C2-25" vertex="1">
          <mxGeometry y="286" width="240" height="32" as="geometry" />
        </mxCell>
        <mxCell id="J-siKovozLCaotCAgBgI-8" value="+&amp;nbsp;AlcoholVolume: GUID (FK)" style="text;strokeColor=none;fillColor=none;align=left;verticalAlign=top;spacingLeft=4;spacingRight=4;overflow=hidden;rotatable=0;points=[[0,0.5],[1,0.5]];portConstraint=eastwest;whiteSpace=wrap;html=1;" parent="0V8ySIExLodoVEiCG3C2-25" vertex="1">
          <mxGeometry y="318" width="240" height="32" as="geometry" />
        </mxCell>
        <mxCell id="J-siKovozLCaotCAgBgI-9" value="+ Capacity: REAL" style="text;strokeColor=none;fillColor=none;align=left;verticalAlign=top;spacingLeft=4;spacingRight=4;overflow=hidden;rotatable=0;points=[[0,0.5],[1,0.5]];portConstraint=eastwest;whiteSpace=wrap;html=1;" parent="0V8ySIExLodoVEiCG3C2-25" vertex="1">
          <mxGeometry y="350" width="240" height="32" as="geometry" />
        </mxCell>
        <mxCell id="J-siKovozLCaotCAgBgI-10" value="+ ExpirationDate: DATETIME" style="text;strokeColor=none;fillColor=none;align=left;verticalAlign=top;spacingLeft=4;spacingRight=4;overflow=hidden;rotatable=0;points=[[0,0.5],[1,0.5]];portConstraint=eastwest;whiteSpace=wrap;html=1;" parent="0V8ySIExLodoVEiCG3C2-25" vertex="1">
          <mxGeometry y="382" width="240" height="32" as="geometry" />
        </mxCell>
        <mxCell id="J-siKovozLCaotCAgBgI-11" value="+ Year: NVARCHAR" style="text;strokeColor=none;fillColor=none;align=left;verticalAlign=top;spacingLeft=4;spacingRight=4;overflow=hidden;rotatable=0;points=[[0,0.5],[1,0.5]];portConstraint=eastwest;whiteSpace=wrap;html=1;" parent="0V8ySIExLodoVEiCG3C2-25" vertex="1">
          <mxGeometry y="414" width="240" height="32" as="geometry" />
        </mxCell>
        <mxCell id="J-siKovozLCaotCAgBgI-12" value="+ ItemImagePath: NVARCHAR" style="text;strokeColor=none;fillColor=none;align=left;verticalAlign=top;spacingLeft=4;spacingRight=4;overflow=hidden;rotatable=0;points=[[0,0.5],[1,0.5]];portConstraint=eastwest;whiteSpace=wrap;html=1;" parent="0V8ySIExLodoVEiCG3C2-25" vertex="1">
          <mxGeometry y="446" width="240" height="32" as="geometry" />
        </mxCell>
        <mxCell id="J-siKovozLCaotCAgBgI-13" value="+ Category: NVARCHAR" style="text;strokeColor=none;fillColor=none;align=left;verticalAlign=top;spacingLeft=4;spacingRight=4;overflow=hidden;rotatable=0;points=[[0,0.5],[1,0.5]];portConstraint=eastwest;whiteSpace=wrap;html=1;" parent="0V8ySIExLodoVEiCG3C2-25" vertex="1">
          <mxGeometry y="478" width="240" height="32" as="geometry" />
        </mxCell>
        <mxCell id="J-siKovozLCaotCAgBgI-14" value="+ IsActive: BIT" style="text;strokeColor=none;fillColor=none;align=left;verticalAlign=top;spacingLeft=4;spacingRight=4;overflow=hidden;rotatable=0;points=[[0,0.5],[1,0.5]];portConstraint=eastwest;whiteSpace=wrap;html=1;" parent="0V8ySIExLodoVEiCG3C2-25" vertex="1">
          <mxGeometry y="510" width="240" height="32" as="geometry" />
        </mxCell>
        <mxCell id="0V8ySIExLodoVEiCG3C2-30" value="" style="endArrow=none;html=1;rounded=0;entryX=0.5;entryY=1;entryDx=0;entryDy=0;exitX=0.5;exitY=0;exitDx=0;exitDy=0;" parent="1" source="0V8ySIExLodoVEiCG3C2-25" target="0V8ySIExLodoVEiCG3C2-21" edge="1">
          <mxGeometry width="50" height="50" relative="1" as="geometry">
            <mxPoint x="400" y="414" as="sourcePoint" />
            <mxPoint x="400" y="350" as="targetPoint" />
          </mxGeometry>
        </mxCell>
        <mxCell id="0V8ySIExLodoVEiCG3C2-33" value="AlcoholFamily" style="swimlane;fontStyle=0;childLayout=stackLayout;horizontal=1;startSize=26;fillColor=none;horizontalStack=0;resizeParent=1;resizeParentMax=0;resizeLast=0;collapsible=1;marginBottom=0;whiteSpace=wrap;html=1;" parent="1" vertex="1">
          <mxGeometry x="280" y="898" width="240" height="90" as="geometry">
            <mxRectangle x="120" y="130" width="80" height="30" as="alternateBounds" />
          </mxGeometry>
        </mxCell>
        <mxCell id="0V8ySIExLodoVEiCG3C2-87" value="+ Name : NVARCHAR" style="text;strokeColor=none;fillColor=none;align=left;verticalAlign=top;spacingLeft=4;spacingRight=4;overflow=hidden;rotatable=0;points=[[0,0.5],[1,0.5]];portConstraint=eastwest;whiteSpace=wrap;html=1;" parent="0V8ySIExLodoVEiCG3C2-33" vertex="1">
          <mxGeometry y="26" width="240" height="32" as="geometry" />
        </mxCell>
        <mxCell id="J-siKovozLCaotCAgBgI-21" value="+ AlcoholFamilyId: GUID (PK)" style="text;strokeColor=none;fillColor=none;align=left;verticalAlign=top;spacingLeft=4;spacingRight=4;overflow=hidden;rotatable=0;points=[[0,0.5],[1,0.5]];portConstraint=eastwest;whiteSpace=wrap;html=1;" parent="0V8ySIExLodoVEiCG3C2-33" vertex="1">
          <mxGeometry y="58" width="240" height="32" as="geometry" />
        </mxCell>
        <mxCell id="0V8ySIExLodoVEiCG3C2-39" value="Supplier" style="swimlane;fontStyle=0;childLayout=stackLayout;horizontal=1;startSize=26;fillColor=none;horizontalStack=0;resizeParent=1;resizeParentMax=0;resizeLast=0;collapsible=1;marginBottom=0;whiteSpace=wrap;html=1;" parent="1" vertex="1">
          <mxGeometry x="600" y="300" width="240" height="182" as="geometry">
            <mxRectangle x="120" y="130" width="80" height="30" as="alternateBounds" />
          </mxGeometry>
        </mxCell>
        <mxCell id="0V8ySIExLodoVEiCG3C2-40" value="+ SupplierId : GUID (PK)" style="text;strokeColor=none;fillColor=none;align=left;verticalAlign=top;spacingLeft=4;spacingRight=4;overflow=hidden;rotatable=0;points=[[0,0.5],[1,0.5]];portConstraint=eastwest;whiteSpace=wrap;html=1;" parent="0V8ySIExLodoVEiCG3C2-39" vertex="1">
          <mxGeometry y="26" width="240" height="26" as="geometry" />
        </mxCell>
        <mxCell id="0V8ySIExLodoVEiCG3C2-42" value="&lt;div&gt;+ Name: NVARCHAR&lt;br&gt;&lt;/div&gt;" style="text;strokeColor=none;fillColor=none;align=left;verticalAlign=top;spacingLeft=4;spacingRight=4;overflow=hidden;rotatable=0;points=[[0,0.5],[1,0.5]];portConstraint=eastwest;whiteSpace=wrap;html=1;" parent="0V8ySIExLodoVEiCG3C2-39" vertex="1">
          <mxGeometry y="52" width="240" height="26" as="geometry" />
        </mxCell>
        <mxCell id="0V8ySIExLodoVEiCG3C2-143" value="+ PhoneNumber:VARCHAR" style="text;strokeColor=none;fillColor=none;align=left;verticalAlign=top;spacingLeft=4;spacingRight=4;overflow=hidden;rotatable=0;points=[[0,0.5],[1,0.5]];portConstraint=eastwest;whiteSpace=wrap;html=1;" parent="0V8ySIExLodoVEiCG3C2-39" vertex="1">
          <mxGeometry y="78" width="240" height="26" as="geometry" />
        </mxCell>
        <mxCell id="J-siKovozLCaotCAgBgI-2" value="&lt;div&gt;+ Description: NVARCHAR&lt;br&gt;&lt;/div&gt;" style="text;strokeColor=none;fillColor=none;align=left;verticalAlign=top;spacingLeft=4;spacingRight=4;overflow=hidden;rotatable=0;points=[[0,0.5],[1,0.5]];portConstraint=eastwest;whiteSpace=wrap;html=1;" parent="0V8ySIExLodoVEiCG3C2-39" vertex="1">
          <mxGeometry y="104" width="240" height="26" as="geometry" />
        </mxCell>
        <mxCell id="0V8ySIExLodoVEiCG3C2-71" value="&lt;div&gt;+ AdressId: GUID (FK) -&amp;gt; Adress&lt;br&gt;&lt;/div&gt;" style="text;strokeColor=none;fillColor=none;align=left;verticalAlign=top;spacingLeft=4;spacingRight=4;overflow=hidden;rotatable=0;points=[[0,0.5],[1,0.5]];portConstraint=eastwest;whiteSpace=wrap;html=1;" parent="0V8ySIExLodoVEiCG3C2-39" vertex="1">
          <mxGeometry y="130" width="240" height="26" as="geometry" />
        </mxCell>
        <mxCell id="J-siKovozLCaotCAgBgI-3" value="&lt;div&gt;+ IsActive: BIT&lt;br&gt;&lt;/div&gt;" style="text;strokeColor=none;fillColor=none;align=left;verticalAlign=top;spacingLeft=4;spacingRight=4;overflow=hidden;rotatable=0;points=[[0,0.5],[1,0.5]];portConstraint=eastwest;whiteSpace=wrap;html=1;" parent="0V8ySIExLodoVEiCG3C2-39" vertex="1">
          <mxGeometry y="156" width="240" height="26" as="geometry" />
        </mxCell>
        <mxCell id="0V8ySIExLodoVEiCG3C2-46" value="" style="endArrow=none;html=1;rounded=0;entryX=1.008;entryY=0.256;entryDx=0;entryDy=0;exitX=-0.015;exitY=0.256;exitDx=0;exitDy=0;exitPerimeter=0;entryPerimeter=0;" parent="1" source="0V8ySIExLodoVEiCG3C2-42" target="0V8ySIExLodoVEiCG3C2-27" edge="1">
          <mxGeometry width="50" height="50" relative="1" as="geometry">
            <mxPoint x="588.05" y="488.99400000000014" as="sourcePoint" />
            <mxPoint x="630" y="324" as="targetPoint" />
          </mxGeometry>
        </mxCell>
        <mxCell id="0V8ySIExLodoVEiCG3C2-47" value="SupplierOrder" style="swimlane;fontStyle=0;childLayout=stackLayout;horizontal=1;startSize=26;fillColor=none;horizontalStack=0;resizeParent=1;resizeParentMax=0;resizeLast=0;collapsible=1;marginBottom=0;whiteSpace=wrap;html=1;" parent="1" vertex="1">
          <mxGeometry x="600" y="-40" width="240" height="78" as="geometry">
            <mxRectangle x="120" y="130" width="80" height="30" as="alternateBounds" />
          </mxGeometry>
        </mxCell>
        <mxCell id="0V8ySIExLodoVEiCG3C2-48" value="+ OrderId : GUID (PK, FK) -&amp;gt; Order" style="text;strokeColor=none;fillColor=none;align=left;verticalAlign=top;spacingLeft=4;spacingRight=4;overflow=hidden;rotatable=0;points=[[0,0.5],[1,0.5]];portConstraint=eastwest;whiteSpace=wrap;html=1;" parent="0V8ySIExLodoVEiCG3C2-47" vertex="1">
          <mxGeometry y="26" width="240" height="26" as="geometry" />
        </mxCell>
        <mxCell id="0V8ySIExLodoVEiCG3C2-61" value="+ SupplierId : GUID (FK)" style="text;strokeColor=none;fillColor=none;align=left;verticalAlign=top;spacingLeft=4;spacingRight=4;overflow=hidden;rotatable=0;points=[[0,0.5],[1,0.5]];portConstraint=eastwest;whiteSpace=wrap;html=1;" parent="0V8ySIExLodoVEiCG3C2-47" vertex="1">
          <mxGeometry y="52" width="240" height="26" as="geometry" />
        </mxCell>
        <mxCell id="0V8ySIExLodoVEiCG3C2-51" value="Order" style="swimlane;fontStyle=0;childLayout=stackLayout;horizontal=1;startSize=26;fillColor=none;horizontalStack=0;resizeParent=1;resizeParentMax=0;resizeLast=0;collapsible=1;marginBottom=0;whiteSpace=wrap;html=1;" parent="1" vertex="1">
          <mxGeometry x="280" y="-40" width="240" height="104" as="geometry">
            <mxRectangle x="120" y="130" width="80" height="30" as="alternateBounds" />
          </mxGeometry>
        </mxCell>
        <mxCell id="0V8ySIExLodoVEiCG3C2-52" value="+ OrderId : GUID (PK)" style="text;strokeColor=none;fillColor=none;align=left;verticalAlign=top;spacingLeft=4;spacingRight=4;overflow=hidden;rotatable=0;points=[[0,0.5],[1,0.5]];portConstraint=eastwest;whiteSpace=wrap;html=1;" parent="0V8ySIExLodoVEiCG3C2-51" vertex="1">
          <mxGeometry y="26" width="240" height="26" as="geometry" />
        </mxCell>
        <mxCell id="0V8ySIExLodoVEiCG3C2-123" value="+ OrderDate : DATETIME " style="text;strokeColor=none;fillColor=none;align=left;verticalAlign=top;spacingLeft=4;spacingRight=4;overflow=hidden;rotatable=0;points=[[0,0.5],[1,0.5]];portConstraint=eastwest;whiteSpace=wrap;html=1;" parent="0V8ySIExLodoVEiCG3C2-51" vertex="1">
          <mxGeometry y="52" width="240" height="26" as="geometry" />
        </mxCell>
        <mxCell id="0V8ySIExLodoVEiCG3C2-124" value="+ Status : NVARCHAR " style="text;strokeColor=none;fillColor=none;align=left;verticalAlign=top;spacingLeft=4;spacingRight=4;overflow=hidden;rotatable=0;points=[[0,0.5],[1,0.5]];portConstraint=eastwest;whiteSpace=wrap;html=1;" parent="0V8ySIExLodoVEiCG3C2-51" vertex="1">
          <mxGeometry y="78" width="240" height="26" as="geometry" />
        </mxCell>
        <mxCell id="0V8ySIExLodoVEiCG3C2-55" value="" style="endArrow=none;dashed=1;html=1;dashPattern=1 3;strokeWidth=2;rounded=0;exitX=1;exitY=0.5;exitDx=0;exitDy=0;entryX=0;entryY=0.5;entryDx=0;entryDy=0;" parent="1" source="0V8ySIExLodoVEiCG3C2-52" target="0V8ySIExLodoVEiCG3C2-48" edge="1">
          <mxGeometry width="50" height="50" relative="1" as="geometry">
            <mxPoint x="400" y="70" as="sourcePoint" />
            <mxPoint x="598" y="9" as="targetPoint" />
          </mxGeometry>
        </mxCell>
        <mxCell id="0V8ySIExLodoVEiCG3C2-56" value="" style="endArrow=none;dashed=1;html=1;dashPattern=1 3;strokeWidth=2;rounded=0;entryX=1;entryY=0.5;entryDx=0;entryDy=0;exitX=0;exitY=0.5;exitDx=0;exitDy=0;" parent="1" source="0V8ySIExLodoVEiCG3C2-52" target="0V8ySIExLodoVEiCG3C2-17" edge="1">
          <mxGeometry width="50" height="50" relative="1" as="geometry">
            <mxPoint x="465" y="90" as="sourcePoint" />
            <mxPoint x="299.9459999999999" y="-12.988000000000056" as="targetPoint" />
          </mxGeometry>
        </mxCell>
        <mxCell id="0V8ySIExLodoVEiCG3C2-57" value="" style="endArrow=none;html=1;rounded=0;exitX=0.5;exitY=0;exitDx=0;exitDy=0;entryX=0.505;entryY=1.003;entryDx=0;entryDy=0;entryPerimeter=0;" parent="1" source="0V8ySIExLodoVEiCG3C2-21" target="0V8ySIExLodoVEiCG3C2-124" edge="1">
          <mxGeometry width="50" height="50" relative="1" as="geometry">
            <mxPoint x="310" y="160" as="sourcePoint" />
            <mxPoint x="360" y="190" as="targetPoint" />
          </mxGeometry>
        </mxCell>
        <mxCell id="0V8ySIExLodoVEiCG3C2-80" value="" style="endArrow=none;html=1;rounded=0;" parent="1" edge="1">
          <mxGeometry width="50" height="50" relative="1" as="geometry">
            <mxPoint x="396.5" y="842" as="sourcePoint" />
            <mxPoint x="397" y="898" as="targetPoint" />
          </mxGeometry>
        </mxCell>
        <mxCell id="0V8ySIExLodoVEiCG3C2-91" value="1,1" style="text;html=1;align=center;verticalAlign=middle;whiteSpace=wrap;rounded=0;" parent="1" vertex="1">
          <mxGeometry x="120" y="400" width="60" height="30" as="geometry" />
        </mxCell>
        <mxCell id="0V8ySIExLodoVEiCG3C2-93" value="1,1" style="text;html=1;align=center;verticalAlign=middle;whiteSpace=wrap;rounded=0;" parent="1" vertex="1">
          <mxGeometry x="340" y="100" width="60" height="30" as="geometry" />
        </mxCell>
        <mxCell id="0V8ySIExLodoVEiCG3C2-94" value="0,n" style="text;html=1;align=center;verticalAlign=middle;whiteSpace=wrap;rounded=0;" parent="1" vertex="1">
          <mxGeometry x="80" y="140" width="60" height="30" as="geometry" />
        </mxCell>
        <mxCell id="0V8ySIExLodoVEiCG3C2-95" value="1,1" style="text;html=1;align=center;verticalAlign=middle;whiteSpace=wrap;rounded=0;" parent="1" vertex="1">
          <mxGeometry x="555" y="-30" width="60" height="30" as="geometry" />
        </mxCell>
        <mxCell id="0V8ySIExLodoVEiCG3C2-96" value="0,n" style="text;html=1;align=center;verticalAlign=middle;whiteSpace=wrap;rounded=0;" parent="1" vertex="1">
          <mxGeometry x="400" y="64" width="60" height="30" as="geometry" />
        </mxCell>
        <mxCell id="0V8ySIExLodoVEiCG3C2-97" value="1,1" style="text;html=1;align=center;verticalAlign=middle;whiteSpace=wrap;rounded=0;" parent="1" vertex="1">
          <mxGeometry x="340" y="234" width="60" height="30" as="geometry" />
        </mxCell>
        <mxCell id="0V8ySIExLodoVEiCG3C2-98" value="0,n" style="text;html=1;align=center;verticalAlign=middle;whiteSpace=wrap;rounded=0;" parent="1" vertex="1">
          <mxGeometry x="400" y="270" width="60" height="30" as="geometry" />
        </mxCell>
        <mxCell id="0V8ySIExLodoVEiCG3C2-101" value="1,1" style="text;html=1;align=center;verticalAlign=middle;whiteSpace=wrap;rounded=0;" parent="1" vertex="1">
          <mxGeometry x="500.5" y="360" width="60" height="30" as="geometry" />
        </mxCell>
        <mxCell id="0V8ySIExLodoVEiCG3C2-102" value="0,n" style="text;html=1;align=center;verticalAlign=middle;whiteSpace=wrap;rounded=0;" parent="1" vertex="1">
          <mxGeometry x="555" y="330" width="60" height="30" as="geometry" />
        </mxCell>
        <mxCell id="0V8ySIExLodoVEiCG3C2-106" value="1,1" style="text;html=1;align=center;verticalAlign=middle;whiteSpace=wrap;rounded=0;" parent="1" vertex="1">
          <mxGeometry x="394" y="842" width="60" height="36" as="geometry" />
        </mxCell>
        <mxCell id="0V8ySIExLodoVEiCG3C2-111" value="0,n" style="text;html=1;align=center;verticalAlign=middle;whiteSpace=wrap;rounded=0;" parent="1" vertex="1">
          <mxGeometry x="334" y="871" width="60" height="36" as="geometry" />
        </mxCell>
        <mxCell id="0V8ySIExLodoVEiCG3C2-114" value="1,1" style="text;html=1;align=center;verticalAlign=middle;whiteSpace=wrap;rounded=0;" parent="1" vertex="1">
          <mxGeometry x="190" width="60" height="30" as="geometry" />
        </mxCell>
        <mxCell id="0V8ySIExLodoVEiCG3C2-113" value="1,1" style="text;html=1;align=center;verticalAlign=middle;whiteSpace=wrap;rounded=0;" parent="1" vertex="1">
          <mxGeometry x="-10" y="40" width="80" height="22" as="geometry" />
        </mxCell>
        <mxCell id="0V8ySIExLodoVEiCG3C2-117" value="1,1" style="text;html=1;align=center;verticalAlign=middle;whiteSpace=wrap;rounded=0;" parent="1" vertex="1">
          <mxGeometry x="720" y="38" width="60" height="30" as="geometry" />
        </mxCell>
        <mxCell id="0V8ySIExLodoVEiCG3C2-118" value="0,n" style="text;html=1;align=center;verticalAlign=middle;whiteSpace=wrap;rounded=0;" parent="1" vertex="1">
          <mxGeometry x="670" y="270" width="60" height="30" as="geometry" />
        </mxCell>
        <mxCell id="0V8ySIExLodoVEiCG3C2-125" value="1,1" style="text;html=1;align=center;verticalAlign=middle;whiteSpace=wrap;rounded=0;" parent="1" vertex="1">
          <mxGeometry x="730" y="500" width="60" height="30" as="geometry" />
        </mxCell>
        <mxCell id="0V8ySIExLodoVEiCG3C2-127" value="0,1" style="text;html=1;align=center;verticalAlign=middle;whiteSpace=wrap;rounded=0;" parent="1" vertex="1">
          <mxGeometry x="220" y="1080" width="60" height="36" as="geometry" />
        </mxCell>
        <mxCell id="0V8ySIExLodoVEiCG3C2-129" value="" style="endArrow=none;html=1;rounded=0;exitX=0;exitY=0.75;exitDx=0;exitDy=0;" parent="1" source="0V8ySIExLodoVEiCG3C2-94" edge="1">
          <mxGeometry width="50" height="50" relative="1" as="geometry">
            <mxPoint x="330" y="180" as="sourcePoint" />
            <mxPoint x="80" y="40" as="targetPoint" />
          </mxGeometry>
        </mxCell>
        <mxCell id="0V8ySIExLodoVEiCG3C2-131" value="" style="endArrow=none;html=1;rounded=0;exitX=0.587;exitY=0.004;exitDx=0;exitDy=0;exitPerimeter=0;entryX=0.531;entryY=1.016;entryDx=0;entryDy=0;entryPerimeter=0;" parent="1" target="0V8ySIExLodoVEiCG3C2-61" edge="1">
          <mxGeometry width="50" height="50" relative="1" as="geometry">
            <mxPoint x="727.75" y="300.72800000000007" as="sourcePoint" />
            <mxPoint x="726.7099999999998" y="65.66399999999999" as="targetPoint" />
          </mxGeometry>
        </mxCell>
        <mxCell id="0V8ySIExLodoVEiCG3C2-137" value="" style="endArrow=none;html=1;rounded=0;entryX=0.492;entryY=1.093;entryDx=0;entryDy=0;entryPerimeter=0;exitX=-0.01;exitY=-0.09;exitDx=0;exitDy=0;exitPerimeter=0;" parent="1" source="0V8ySIExLodoVEiCG3C2-10" target="0V8ySIExLodoVEiCG3C2-90" edge="1">
          <mxGeometry width="50" height="50" relative="1" as="geometry">
            <mxPoint x="290" y="700" as="sourcePoint" />
            <mxPoint x="340" y="650" as="targetPoint" />
            <Array as="points">
              <mxPoint x="78" y="1083" />
            </Array>
          </mxGeometry>
        </mxCell>
        <mxCell id="0V8ySIExLodoVEiCG3C2-138" value="" style="endArrow=none;html=1;rounded=0;exitX=1.011;exitY=0.964;exitDx=0;exitDy=0;exitPerimeter=0;entryX=0.513;entryY=1.006;entryDx=0;entryDy=0;entryPerimeter=0;" parent="1" source="0V8ySIExLodoVEiCG3C2-9" target="J-siKovozLCaotCAgBgI-3" edge="1">
          <mxGeometry width="50" height="50" relative="1" as="geometry">
            <mxPoint x="460" y="1030" as="sourcePoint" />
            <mxPoint x="723" y="455" as="targetPoint" />
            <Array as="points">
              <mxPoint x="728" y="1085" />
            </Array>
          </mxGeometry>
        </mxCell>
        <mxCell id="0V8ySIExLodoVEiCG3C2-139" value="0,1" style="text;html=1;align=center;verticalAlign=middle;whiteSpace=wrap;rounded=0;" parent="1" vertex="1">
          <mxGeometry x="520" y="1087" width="60" height="36" as="geometry" />
        </mxCell>
        <mxCell id="0V8ySIExLodoVEiCG3C2-140" value="0,1" style="text;html=1;align=center;verticalAlign=middle;whiteSpace=wrap;rounded=0;" parent="1" vertex="1">
          <mxGeometry x="230" y="-30" width="60" height="30" as="geometry" />
        </mxCell>
        <mxCell id="0V8ySIExLodoVEiCG3C2-141" value="0,1" style="text;html=1;align=center;verticalAlign=middle;whiteSpace=wrap;rounded=0;" parent="1" vertex="1">
          <mxGeometry x="500.5" width="60" height="30" as="geometry" />
        </mxCell>
        <mxCell id="J-siKovozLCaotCAgBgI-15" style="edgeStyle=none;curved=1;rounded=0;orthogonalLoop=1;jettySize=auto;html=1;exitX=1;exitY=0.5;exitDx=0;exitDy=0;fontSize=12;startSize=8;endSize=8;" parent="1" source="0V8ySIExLodoVEiCG3C2-139" target="0V8ySIExLodoVEiCG3C2-139" edge="1">
          <mxGeometry relative="1" as="geometry" />
        </mxCell>
      </root>
    </mxGraphModel>
  </diagram>
</mxfile>
